<svg xmlns="http://www.w3.org/2000/svg" xmlns:xlink="http://www.w3.org/1999/xlink" width="20" height="20" viewBox="0 0 20 20">
  <defs>
    <clipPath id="clip-path">
      <rect id="Rectangle_21" data-name="Rectangle 21" width="20" height="20" transform="translate(455 11)" fill="#fff"/>
    </clipPath>
    <radialGradient id="radial-gradient" cx="0.372" cy="1.001" r="1.247" gradientUnits="objectBoundingBox">
      <stop offset="0" stop-color="#fd5"/>
      <stop offset="0.328" stop-color="#ff543f"/>
      <stop offset="0.348" stop-color="#fc5245"/>
      <stop offset="0.504" stop-color="#e64771"/>
      <stop offset="0.643" stop-color="#d53e91"/>
      <stop offset="0.761" stop-color="#cc39a4"/>
      <stop offset="0.841" stop-color="#c837ab"/>
    </radialGradient>
    <radialGradient id="radial-gradient-2" cx="0.161" cy="-0.012" r="0.828" gradientTransform="translate(0 -0.004) scale(1 0.666)" gradientUnits="objectBoundingBox">
      <stop offset="0" stop-color="#4168c9"/>
      <stop offset="0.999" stop-color="#4168c9" stop-opacity="0"/>
    </radialGradient>
  </defs>
  <g id="instagram" transform="translate(-455 -11)" clip-path="url(#clip-path)">
    <g id="icons8-instagram" transform="translate(451.674 7.674)">
      <path id="Path_3" data-name="Path 3" d="M18.888,23.315l-11.105.011a4.456,4.456,0,0,1-4.447-4.438L3.326,7.783A4.456,4.456,0,0,1,7.764,3.337l11.105-.011a4.456,4.456,0,0,1,4.447,4.438l.011,11.105A4.454,4.454,0,0,1,18.888,23.315Z" fill="url(#radial-gradient)"/>
      <path id="Path_4" data-name="Path 4" d="M18.888,23.315l-11.105.011a4.456,4.456,0,0,1-4.447-4.438L3.326,7.783A4.456,4.456,0,0,1,7.764,3.337l11.105-.011a4.456,4.456,0,0,1,4.447,4.438l.011,11.105A4.454,4.454,0,0,1,18.888,23.315Z" fill="url(#radial-gradient-2)"/>
      <path id="Path_5" data-name="Path 5" d="M13.326,17.213a3.887,3.887,0,1,1,3.887-3.887A3.891,3.891,0,0,1,13.326,17.213Zm0-6.663A2.776,2.776,0,1,0,16.1,13.326,2.779,2.779,0,0,0,13.326,10.55Z" fill="#fff"/>
      <circle id="Ellipse_1" data-name="Ellipse 1" cx="0.833" cy="0.833" r="0.833" transform="translate(16.658 8.329)" fill="#fff"/>
      <path id="Path_6" data-name="Path 6" d="M16.658,20.545H9.995a3.891,3.891,0,0,1-3.887-3.887V9.995A3.891,3.891,0,0,1,9.995,6.108h6.663a3.891,3.891,0,0,1,3.887,3.887v6.663A3.891,3.891,0,0,1,16.658,20.545ZM9.995,7.218A2.779,2.779,0,0,0,7.218,9.995v6.663a2.779,2.779,0,0,0,2.776,2.776h6.663a2.779,2.779,0,0,0,2.776-2.776V9.995a2.779,2.779,0,0,0-2.776-2.776Z" fill="#fff"/>
    </g>
  </g>
</svg>
