<svg xmlns="http://www.w3.org/2000/svg" xmlns:xlink="http://www.w3.org/1999/xlink" width="20" height="20" viewBox="0 0 20 20">
  <defs>
    <clipPath id="clip-path">
      <rect id="Rectangle_20" data-name="Rectangle 20" width="20" height="20" transform="translate(415 11)" fill="#fff"/>
    </clipPath>
  </defs>
  <g id="twitter" transform="translate(-415 -11)" clip-path="url(#clip-path)">
    <path id="icons8-twitter" d="M23.331,6.9a8.32,8.32,0,0,1-2.359.646A4.1,4.1,0,0,0,22.778,5.3a8.238,8.238,0,0,1-2.607.987,4.092,4.092,0,0,0-6.988,3.711A11.693,11.693,0,0,1,4.726,5.742a4.017,4.017,0,0,0-.556,2.048A4.058,4.058,0,0,0,6,11.176a4.178,4.178,0,0,1-1.86-.508v.048A4.079,4.079,0,0,0,7.425,14.7a4.081,4.081,0,0,1-1.078.146,4.36,4.36,0,0,1-.773-.075A4.111,4.111,0,0,0,9.406,17.6a8.291,8.291,0,0,1-5.1,1.741,8.117,8.117,0,0,1-.978-.058,11.726,11.726,0,0,0,6.291,1.825A11.542,11.542,0,0,0,21.3,9.536c0-.176-.006-.352-.014-.525A8.073,8.073,0,0,0,23.331,6.9" transform="translate(411.669 7.946)" fill="#03a9f4"/>
  </g>
</svg>
