<svg xmlns="http://www.w3.org/2000/svg" xmlns:xlink="http://www.w3.org/1999/xlink" width="20" height="20" viewBox="0 0 20 20">
  <defs>
    <clipPath id="clip-path">
      <rect id="Rectangle_22" data-name="Rectangle 22" width="20" height="20" transform="translate(495 11)" fill="#fff"/>
    </clipPath>
  </defs>
  <g id="whatsapp" transform="translate(-495 -11)" clip-path="url(#clip-path)">
    <g id="icons8-whatsapp" transform="translate(493.123 9.015)">
      <path id="Path_7" data-name="Path 7" d="M2.416,21.488l1.337-4.88a9.422,9.422,0,1,1,8.164,4.717h0a9.411,9.411,0,0,1-4.5-1.147Z" fill="#fff"/>
      <path id="Path_8" data-name="Path 8" d="M2.416,21.736a.248.248,0,0,1-.239-.313l1.31-4.782a9.669,9.669,0,1,1,3.893,3.8l-4.9,1.285A.227.227,0,0,1,2.416,21.736Z" fill="#fff"/>
      <path id="Path_9" data-name="Path 9" d="M11.916,2.481a9.422,9.422,0,0,1,0,18.844h0a9.411,9.411,0,0,1-4.5-1.147l-4.995,1.31,1.337-4.88A9.423,9.423,0,0,1,11.916,2.481m0,18.844h0m0,0h0m0-19.34h0a9.92,9.92,0,0,0-8.7,14.689L1.937,21.358a.5.5,0,0,0,.6.611l4.807-1.26A9.919,9.919,0,1,0,11.916,1.985Z" fill="#cfd8dc"/>
      <path id="Path_10" data-name="Path 10" d="M17.455,6.368a7.831,7.831,0,0,0-12.173,9.7l.187.3-.791,2.889,2.964-.777.286.17a7.816,7.816,0,0,0,3.986,1.091h0A7.831,7.831,0,0,0,17.455,6.368Z" fill="#40c351"/>
      <path id="Path_11" data-name="Path 11" d="M9.561,7.962c-.176-.392-.362-.4-.53-.407-.137-.006-.294-.005-.451-.005a.865.865,0,0,0-.628.295,2.639,2.639,0,0,0-.824,1.963,4.578,4.578,0,0,0,.961,2.434A9.665,9.665,0,0,0,12.111,15.8c1.988.784,2.393.628,2.825.589a2.376,2.376,0,0,0,1.589-1.119,1.971,1.971,0,0,0,.137-1.119c-.059-.1-.216-.157-.451-.275s-1.393-.687-1.609-.766-.373-.118-.53.118-.608.766-.745.922-.275.177-.51.059a6.444,6.444,0,0,1-1.893-1.168,7.092,7.092,0,0,1-1.31-1.63c-.137-.235-.015-.363.1-.48s.235-.275.353-.412a1.61,1.61,0,0,0,.235-.393.433.433,0,0,0-.02-.412C10.228,9.592,9.771,8.427,9.561,7.962Z" fill="#fff" fill-rule="evenodd"/>
    </g>
  </g>
</svg>
